# xmcd
#
# Track frame offsets:
# 150
# 13275
# 30075
# 48525
# 64350
# 81675
# 95325
# 105600
# 125325
# 139575
# 153375
# 167850
# 181500
# 195075
# 206925
# 221700
# 239775
#
# Disc length: 3383 seconds
#
#
# Revision: 0
# Processed by: cddbd v1.5.1PL0 Copyright (c) Steve Scherf et al.
# Submitted via: FreeRIP 2.92 
#
DISCID=f10d3511
DTITLE=Variable - Zlate Country Hity
DYEAR=2002
DGENRE=Country
TTITLE0=Jan Vancura - Vitam Vas
TTITLE1=Petr Spaleny - Hrac
TTITLE2=Vera Martinova - O Pane nas
TTITLE3=Nada Urbankova - Vilem pece housky
TTITLE4=STRANICI - Hvezdy
TTITLE5=ZELENACI M. Hoffmanna - Tom Dooley
TTITLE6=HOP TROP - Zamky
TTITLE7=Miluska Vobornikova - Destivy den
TTITLE8=Milan Drobny - Muzny vous
TTITLE9=SCHOVANKY - Whisky to je moje gusto
TTITLE10=Vladimir Cech - Kolikrat se blejska
TTITLE11=Gabriela Goldova - Jsem tu ja
TTITLE12=Jana Chladkova - Jedno misto znam
TTITLE13=SAMSON A JEHO PARTA - Vodacka holka
TTITLE14=Jan Bican - Zmrzly drevorubec
TTITLE15=PODHOUBACI - Tak se mi styska
TTITLE16=AURIS - Sazka
EXTD=Popron Music\nMastering: studio AION Praha
EXTT0=
EXTT1=
EXTT2=
EXTT3=
EXTT4=
EXTT5=
EXTT6=
EXTT7=
EXTT8=
EXTT9=
EXTT10=
EXTT11=
EXTT12=
EXTT13=
EXTT14=
EXTT15=
EXTT16=
PLAYORDER=
